<?xml version="1.0" encoding="UTF-8"?>
<svg id="Layer_1" data-name="Layer 1" xmlns="http://www.w3.org/2000/svg" viewBox="0 0 2000 2000">
  <defs>
    <style>
      .cls-1, .cls-2 {
        stroke-width: 0px;
      }

      .cls-2 {
        fill: #fff;
      }
    </style>
  </defs>
  <rect class="cls-2" width="2000" height="2000"/>
  <path class="cls-1" d="m912.9,679.2c-43.79-.31-87.07,4.62-130.17,11.92-15.85,2.69-30.81.7-35.87-17.66-4.67-16.97,3.24-28.66,19.05-35.39,167.85-71.47,351.21-62.54,486.77,51.56,175.56,147.77,176.63,435.38,3.97,600.37-155.18,148.29-386.68,157.42-536.52,21.17-108.52-98.68-137.04-264.81-67.69-394.23,71.35-133.14,255.96-183.31,385.04-104.65,79.31,48.33,119.76,138.06,103.8,230.26-18.3,105.76-143.93,171.42-238.7,124.77-36.79-18.11-50.46-44.56-39.89-77.17,11.17-34.45,32.4-44.69,66.02-31.85,42.56,16.25,72.29,8.25,88.61-23.84,18.91-37.19,5.77-83.05-30.22-105.45-53.33-33.2-134.6-27.29-191.44,13.93-59.09,42.86-77.72,97.91-58.51,172.88,38.79,151.32,202.72,222.09,355.76,153.58,119.51-53.5,191.53-178.88,178.12-310.06-14.07-137.62-108.58-241.75-245.15-271.07-37.39-8.03-75.08-9.2-112.98-9.07Z"/>
</svg>