<svg width="1448" height="1032" viewBox="0 0 1448 1032" fill="none" xmlns="http://www.w3.org/2000/svg">
<g clip-path="url(#clip0_185_506)" filter="url(#filter0_d_185_506)">
<rect width="1440" height="1024" transform="translate(4)" fill="#2A0856"/>
<rect x="4" width="1440" height="1024" fill="#2A0856"/>
<mask id="mask0_185_506" style="mask-type:alpha" maskUnits="userSpaceOnUse" x="-2" y="0" width="1453" height="1024">
<ellipse cx="102" cy="102.5" rx="104" ry="102.5" fill="#D9D9D9"/>
<ellipse cx="309.5" cy="102.5" rx="103.5" ry="102.5" fill="#D9D9D9"/>
<ellipse cx="932" cy="102.5" rx="104" ry="102.5" fill="#D9D9D9"/>
<ellipse cx="1139.5" cy="102.5" rx="103.5" ry="102.5" fill="#D9D9D9"/>
<ellipse cx="1347" cy="102.5" rx="104" ry="102.5" fill="#D9D9D9"/>
<ellipse cx="516.5" cy="102.5" rx="103.5" ry="102.5" fill="#D9D9D9"/>
<ellipse cx="724" cy="102.5" rx="104" ry="102.5" fill="#D9D9D9"/>
<ellipse cx="102" cy="716.5" rx="104" ry="102.5" fill="#D9D9D9"/>
<ellipse cx="309.5" cy="716.5" rx="103.5" ry="102.5" fill="#D9D9D9"/>
<ellipse cx="932" cy="716.5" rx="104" ry="102.5" fill="#D9D9D9"/>
<ellipse cx="1139.5" cy="716.5" rx="103.5" ry="102.5" fill="#D9D9D9"/>
<ellipse cx="1347" cy="716.5" rx="104" ry="102.5" fill="#D9D9D9"/>
<ellipse cx="516.5" cy="716.5" rx="103.5" ry="102.5" fill="#D9D9D9"/>
<ellipse cx="724" cy="716.5" rx="104" ry="102.5" fill="#D9D9D9"/>
<ellipse cx="102" cy="921.5" rx="104" ry="102.5" fill="#D9D9D9"/>
<ellipse cx="309.5" cy="921.5" rx="103.5" ry="102.5" fill="#D9D9D9"/>
<ellipse cx="932" cy="921.5" rx="104" ry="102.5" fill="#D9D9D9"/>
<ellipse cx="1139.5" cy="921.5" rx="103.5" ry="102.5" fill="#D9D9D9"/>
<ellipse cx="1347" cy="921.5" rx="104" ry="102.5" fill="#D9D9D9"/>
<ellipse cx="516.5" cy="921.5" rx="103.5" ry="102.5" fill="#D9D9D9"/>
<ellipse cx="724" cy="921.5" rx="104" ry="102.5" fill="#D9D9D9"/>
<ellipse cx="102" cy="102.5" rx="104" ry="102.5" fill="#D9D9D9"/>
<ellipse cx="309.5" cy="102.5" rx="103.5" ry="102.5" fill="#D9D9D9"/>
<ellipse cx="932" cy="102.5" rx="104" ry="102.5" fill="#D9D9D9"/>
<ellipse cx="1139.5" cy="102.5" rx="103.5" ry="102.5" fill="#D9D9D9"/>
<ellipse cx="1347" cy="102.5" rx="104" ry="102.5" fill="#D9D9D9"/>
<ellipse cx="516.5" cy="102.5" rx="103.5" ry="102.5" fill="#D9D9D9"/>
<ellipse cx="724" cy="102.5" rx="104" ry="102.5" fill="#D9D9D9"/>
<ellipse cx="102" cy="307.5" rx="104" ry="102.5" fill="#D9D9D9"/>
<ellipse cx="309.5" cy="307.5" rx="103.5" ry="102.5" fill="#D9D9D9"/>
<ellipse cx="932" cy="307.5" rx="104" ry="102.5" fill="#D9D9D9"/>
<ellipse cx="1139.5" cy="307.5" rx="103.5" ry="102.5" fill="#D9D9D9"/>
<ellipse cx="1347" cy="307.5" rx="104" ry="102.5" fill="#D9D9D9"/>
<ellipse cx="516.5" cy="307.5" rx="103.5" ry="102.5" fill="#D9D9D9"/>
<ellipse cx="724" cy="307.5" rx="104" ry="102.5" fill="#D9D9D9"/>
<ellipse cx="102" cy="512" rx="104" ry="102" fill="#D9D9D9"/>
<ellipse cx="309.5" cy="512" rx="103.5" ry="102" fill="#D9D9D9"/>
<ellipse cx="932" cy="512" rx="104" ry="102" fill="#D9D9D9"/>
<ellipse cx="1139.5" cy="512" rx="103.5" ry="102" fill="#D9D9D9"/>
<ellipse cx="1347" cy="512" rx="104" ry="102" fill="#D9D9D9"/>
<ellipse cx="516.5" cy="512" rx="103.5" ry="102" fill="#D9D9D9"/>
<ellipse cx="724" cy="512" rx="104" ry="102" fill="#D9D9D9"/>
</mask>
<g mask="url(#mask0_185_506)">
<g filter="url(#filter1_f_185_506)">
<path fill-rule="evenodd" clip-rule="evenodd" d="M383.685 713.512C502.991 706.292 614.586 549.189 714.29 615.126C810.042 678.45 761.338 834.081 734.977 945.833C714.947 1030.75 638.402 1079.02 588.057 1150.27C516.669 1251.29 504.231 1415.3 383.685 1442.96C259.346 1471.5 134.343 1373.95 57.6255 1271.99C-11.0554 1180.72 3.49603 1059.91 9.60805 945.833C15.2445 840.633 1.32131 708.425 90.7978 652.856C178.851 598.17 280.23 719.772 383.685 713.512Z" fill="#74C5C8"/>
</g>
<g filter="url(#filter2_f_185_506)">
<path fill-rule="evenodd" clip-rule="evenodd" d="M526.388 159.413C613.249 177.678 696.548 200.022 761.958 260.071C830.779 323.252 890.063 402.423 892.861 495.851C895.726 591.486 854.197 690.441 776.518 746.204C705.995 796.831 612.03 772.998 526.388 758.929C458.698 747.81 406.758 708.941 346.787 675.612C242.476 617.639 90.9654 609.071 53.0246 495.851C11.3717 371.552 58.7085 210.555 165.507 134.648C267.708 62.0106 403.719 133.618 526.388 159.413Z" fill="#C2B8ED"/>
</g>
<g filter="url(#filter3_f_185_506)">
<path fill-rule="evenodd" clip-rule="evenodd" d="M1578.19 685.076C1650.56 698.587 1714.42 723.906 1774.35 766.685C1852.03 822.127 1959.93 867.823 1967.55 962.994C1975.3 1059.75 1881.45 1129.5 1808.55 1193.52C1741.91 1252.03 1666.78 1308.05 1578.19 1304.87C1491.85 1301.78 1431.76 1230.91 1363.76 1177.58C1279.66 1111.64 1157.37 1068.83 1142.22 962.994C1126.35 852.119 1197.64 736.812 1292.04 676.635C1375.71 623.3 1480.67 666.869 1578.19 685.076Z" fill="#60D1A2"/>
</g>
<g filter="url(#filter4_f_185_506)">
<path fill-rule="evenodd" clip-rule="evenodd" d="M861.029 -194.023C1000.24 -147.105 997.738 47.0451 1065.44 177.442C1101.4 246.718 1149.44 304.542 1160.02 381.88C1172.74 474.888 1194.27 582.499 1130.25 651.142C1065.47 720.597 955.528 693.007 861.029 702.441C747.577 713.767 620.869 782.427 532.107 710.855C441.462 637.766 476.471 497.605 463.473 381.88C447.519 239.835 367.657 87.2698 448.857 -30.3571C536.167 -156.836 715.403 -243.102 861.029 -194.023Z" fill="#74C5C8"/>
</g>
</g>
</g>
<defs>
<filter id="filter0_d_185_506" x="0" y="0" width="1448" height="1032" filterUnits="userSpaceOnUse" color-interpolation-filters="sRGB">
<feFlood flood-opacity="0" result="BackgroundImageFix"/>
<feColorMatrix in="SourceAlpha" type="matrix" values="0 0 0 0 0 0 0 0 0 0 0 0 0 0 0 0 0 0 127 0" result="hardAlpha"/>
<feOffset dy="4"/>
<feGaussianBlur stdDeviation="2"/>
<feComposite in2="hardAlpha" operator="out"/>
<feColorMatrix type="matrix" values="0 0 0 0 0 0 0 0 0 0 0 0 0 0 0 0 0 0 0.25 0"/>
<feBlend mode="normal" in2="BackgroundImageFix" result="effect1_dropShadow_185_506"/>
<feBlend mode="normal" in="SourceGraphic" in2="effect1_dropShadow_185_506" result="shape"/>
</filter>
<filter id="filter1_f_185_506" x="-196" y="399" width="1167" height="1249" filterUnits="userSpaceOnUse" color-interpolation-filters="sRGB">
<feFlood flood-opacity="0" result="BackgroundImageFix"/>
<feBlend mode="normal" in="SourceGraphic" in2="BackgroundImageFix" result="shape"/>
<feGaussianBlur stdDeviation="100" result="effect1_foregroundBlur_185_506"/>
</filter>
<filter id="filter2_f_185_506" x="-162" y="-97" width="1255" height="1074" filterUnits="userSpaceOnUse" color-interpolation-filters="sRGB">
<feFlood flood-opacity="0" result="BackgroundImageFix"/>
<feBlend mode="normal" in="SourceGraphic" in2="BackgroundImageFix" result="shape"/>
<feGaussianBlur stdDeviation="100" result="effect1_foregroundBlur_185_506"/>
</filter>
<filter id="filter3_f_185_506" x="940" y="451" width="1228" height="1054" filterUnits="userSpaceOnUse" color-interpolation-filters="sRGB">
<feFlood flood-opacity="0" result="BackgroundImageFix"/>
<feBlend mode="normal" in="SourceGraphic" in2="BackgroundImageFix" result="shape"/>
<feGaussianBlur stdDeviation="100" result="effect1_foregroundBlur_185_506"/>
</filter>
<filter id="filter4_f_185_506" x="213" y="-408" width="1161" height="1351" filterUnits="userSpaceOnUse" color-interpolation-filters="sRGB">
<feFlood flood-opacity="0" result="BackgroundImageFix"/>
<feBlend mode="normal" in="SourceGraphic" in2="BackgroundImageFix" result="shape"/>
<feGaussianBlur stdDeviation="100" result="effect1_foregroundBlur_185_506"/>
</filter>
<clipPath id="clip0_185_506">
<rect width="1440" height="1024" fill="white" transform="translate(4)"/>
</clipPath>
</defs>
</svg>
